<svg width="33.000000" height="33.000000" viewBox="0 0 33 33" fill="none" xmlns="http://www.w3.org/2000/svg" xmlns:xlink="http://www.w3.org/1999/xlink">
	<desc>
			Created with Pixso.
	</desc>
	<defs>
		<clipPath id="clip307_4312">
			<rect id="next 1" rx="-0.500000" width="20.000000" height="18.000000" transform="matrix(-1 0 0 1 25.5 7.5)" fill="white" fill-opacity="0"/>
		</clipPath>
	</defs>
	<rect id="Rectangle 155" rx="16.500000" width="33.000000" height="33.000000" fill="#FFFFFF" fill-opacity="1.000000"/>
	<rect id="next 1" rx="-0.500000" width="20.000000" height="18.000000" transform="matrix(-1 0 0 1 25.5 7.5)" fill="#FFFFFF" fill-opacity="0"/>
	<g clip-path="url(#clip307_4312)">
		<path id="Chevron_Right_1_" d="M9.02 15.82L18.46 7.28C18.88 6.9 19.55 6.9 19.97 7.28C20.38 7.65 20.38 8.26 19.97 8.63L11.27 16.49L19.96 24.36C20.38 24.73 20.38 25.34 19.96 25.71C19.55 26.09 18.88 26.09 18.46 25.71L9.02 17.17C8.61 16.8 8.61 16.19 9.02 15.82Z" fill="#8BAC3E" fill-opacity="1.000000" fill-rule="nonzero"/>
	</g>
</svg>
